<svg xmlns="http://www.w3.org/2000/svg" width="40" height="40" viewBox="0 0 40 40">
    <g fill="none" fill-rule="evenodd">
        <g>
            <g>
                <g>
                    <g>
                        <path fill="#F7941E" d="M29.744 4c3.567 0 4.86.371 6.163 1.069 1.304.697 2.327 1.72 3.024 3.024C39.63 9.396 40 10.689 40 14.256v11.488c0 3.567-.371 4.86-1.069 6.163-.697 1.304-1.72 2.327-3.024 3.024C34.604 35.63 33.311 36 29.744 36H14.828l-3.414 3.414c-1.223 1.223-3.288.418-3.408-1.26L8 38v-2.067c-1.948-.136-2.925-.476-3.907-1.002-1.304-.697-2.327-1.72-3.024-3.024C.408 30.672.04 29.447.003 26.29L0 14.256c0-3.567.371-4.86 1.069-6.163.697-1.304 1.72-2.327 3.024-3.024C5.396 4.37 6.689 4 10.256 4h19.488zm.476 4.002H9.78l-.832.015c-1.643.051-2.3.221-2.969.579-.607.324-1.059.776-1.383 1.383l-.152.311c-.302.69-.426 1.52-.442 3.49L4 25.744c0 2.648.156 3.454.596 4.277.324.607.776 1.059 1.383 1.383l.311.152c.69.302 1.52.426 3.49.442L29.744 32c2.648 0 3.454-.156 4.277-.596.607-.324 1.059-.776 1.383-1.383l.152-.311c.302-.69.426-1.52.442-3.49L36 14.256c0-2.648-.156-3.454-.596-4.277-.324-.607-.776-1.059-1.383-1.383l-.311-.152c-.69-.302-1.52-.426-3.49-.442zM24 22c1.105 0 2 .895 2 2s-.895 2-2 2H12c-1.105 0-2-.895-2-2s.895-2 2-2h12zm4-8c1.105 0 2 .895 2 2s-.895 2-2 2H12c-1.105 0-2-.895-2-2s.895-2 2-2h16z" transform="translate(-856 -2420) translate(0 2340) translate(535 32) translate(321 48)"/>
                    </g>
                </g>
            </g>
        </g>
    </g>
</svg>
