<svg xmlns="http://www.w3.org/2000/svg" width="24" height="24" viewBox="0 0 24 24">
    <defs>
        <linearGradient id="b93f1fh4ya" x1="0%" x2="100%" y1="50%" y2="50%">
            <stop offset="0%" stop-color="#B64D1B"/>
            <stop offset="100%" stop-color="#EDC229"/>
        </linearGradient>
    </defs>
    <path fill="url(#b93f1fh4ya)" fill-rule="evenodd" d="M6.548.203c.566.272.971.787 1.097 1.395v.007l1.41 4.007c.047.233.255.4.496.4l6.252.002c.56 0 1.014.447 1.014 1 0 .523-.407.952-.927.996l-.1.004c-.249 0-.461.18-.5.424L13.534 22.74v.009c-.124.724-.762 1.253-1.507 1.25H4.79c-.748 0-1.387-.535-1.507-1.263L1.526 8.44c-.034-.222-.213-.39-.432-.42l-.08-.004c-.56 0-1.014-.448-1.014-1 0-.524.408-.953.927-.997l.11-.003h.488c.544-.002 1.36-.002 1.93-.003h3c.153 0 .297-.068.394-.184.096-.116.134-.27.104-.416l-1.165-2.78c-.031-.153-.134-.282-.276-.35-.143-.068-.31-.066-.45.004L1.764 3.914c-.326.178-.725.166-1.039-.032-.314-.198-.493-.55-.465-.917.025-.336.22-.634.514-.798L4.757.208C5.32-.067 5.982-.07 6.548.203zM22.983 6c.234 0 .457.1.611.274.135.152.206.348.2.548l-.007.086-1.526 11.254c-.077.564-.543.992-1.11 1.036l-.096.004h-5.712c-.051 0-.1-.01-.146-.027l1.236-10.051.054-.015c.898-.285 1.547-1.115 1.547-2.095l-.003-.117c-.017-.322-.104-.626-.247-.897h5.199zM16.49 0c1.755 0 3.236 1.288 3.457 3.005 1.012-1.69 3.8-1.575 4.05 1.36.01.113-.028.223-.106.306-.061.066-.143.109-.232.123l-.067.006-13.537-.001-.654-1.86c.872-1.479 2.818-1.29 3.632.066C13.254 1.288 14.736 0 16.49 0z"/>
</svg>
