<svg xmlns="http://www.w3.org/2000/svg" width="24" height="24" viewBox="0 0 24 24">
    <defs>
        <linearGradient id="4madjm061a" x1="0%" x2="100%" y1="50%" y2="50%">
            <stop offset="0%" stop-color="#B64D1B"/>
            <stop offset="100%" stop-color="#EDC229"/>
        </linearGradient>
    </defs>
    <path fill="url(#4madjm061a)" fill-rule="evenodd" d="M6.599 5c.497 0 .9.418.9.935 0 .516-.403.934-.9.934h-1.2c-.292 0-.546.205-.618.499l-.01.046c-.023.093-.003.191.054.267.057.076.144.12.237.12h.337c.173-.001.338.075.453.209.115.134.168.313.147.491l-.52 4.284H16.24c.113 0 .217-.066.268-.172l2.07-4.3c.516-1.08 1.578-1.761 2.74-1.758.854 0 1.657.422 2.163 1.138.505.715.65 1.638.393 2.484l-4.107 13.388c-.079.26-.31.435-.572.435H9.598c-.26 0-.489-.173-.57-.429l-2.294-7.146c-.089-.281-.135-.576-.135-.872 0-.152-.12-.275-.266-.275H1.2c-.663 0-1.2-.558-1.2-1.247 0-.688.537-1.246 1.2-1.246h.52L1.2 8.501c-.022-.178.032-.357.147-.491.115-.134.28-.21.453-.209h.788c.137.001.257-.095.29-.233l.157-.652C3.305 5.79 4.281 5 5.4 5zM4.894 19l.069.012c.09.027.16.095.19.183l.831 2.488c.043.124-.004.262-.115.333l-3.01 1.887c-.653.26-1.398-.02-1.714-.647-.316-.626-.1-1.39.5-1.759l3.057-2.434c.073-.06.17-.078.26-.05zm7.709-10.838c1.107-.34 2.289-.14 3.26.555.128.09.174.278.105.43l-.726 1.669c-.05.112-.152.184-.263.184h-4.686c-.102 0-.197-.062-.25-.162-.054-.099-.057-.223-.01-.327.531-1.156 1.463-2.008 2.57-2.349zM14 0c1.657 0 3 1.343 3 3s-1.343 3-3 3-3-1.343-3-3 1.343-3 3-3z"/>
</svg>
