<svg xmlns="http://www.w3.org/2000/svg" width="24" height="24" viewBox="0 0 24 24">
    <defs>
        <linearGradient id="tejteafm9a" x1="0%" x2="100%" y1="50%" y2="50%">
            <stop offset="0%" stop-color="#B64D1B"/>
            <stop offset="100%" stop-color="#EDC229"/>
        </linearGradient>
    </defs>
    <path fill="url(#tejteafm9a)" fill-rule="evenodd" d="M23 8h-3.25c-.138 0-.25-.112-.25-.25V1c0-.552-.448-1-1-1s-1 .448-1 1v.25c0 .138-.112.25-.25.25H6.75c-.138 0-.25-.112-.25-.25V1c0-.552-.448-1-1-1s-1 .448-1 1v6.75c0 .138-.112.25-.25.25H1c-.552 0-1 .448-1 1s.448 1 1 1h3.25c.138 0 .25.112.25.25v3.517c0 .066-.026.129-.072.176l-.493.5c-.425.43-.553 1.072-.323 1.63.228.561.772.927 1.377.927h.633c.05 0 .097.015.138.042l4.125 2.75c.07.046.112.124.112.208 0 .084-.042.162-.112.208l-2.94 1.96c-.297.198-.466.54-.443.897.023.356.235.673.555.832.32.158.7.133.998-.065l3.806-2.538c.084-.056.194-.056.278 0l3.806 2.538c.297.198.678.223.998.065.32-.159.532-.476.555-.832.023-.357-.146-.699-.443-.897l-2.94-1.96c-.07-.046-.112-.124-.112-.208 0-.084.042-.162.112-.208l4.125-2.75c.04-.027.089-.042.138-.042h.633c.605 0 1.15-.367 1.377-.928.23-.56.102-1.202-.323-1.631l-.493-.5c-.046-.047-.072-.11-.072-.176V10.25c0-.138.112-.25.25-.25H23c.552 0 1-.448 1-1s-.448-1-1-1zM6.75 13c-.138 0-.25-.112-.25-.25v-1.5c0-.138.112-.25.25-.25h10.5c.138 0 .25.112.25.25v1.5c0 .138-.112.25-.25.25H6.75zm6.95-6.017l.373 1.681c.024.109-.02.221-.11.286-.091.064-.212.067-.306.008l-1.506-.941c-.09-.057-.204-.057-.294 0l-1.506.941c-.094.06-.215.056-.306-.008-.09-.065-.134-.177-.11-.286l.365-1.681c.022-.101-.014-.206-.093-.272L9.1 5.785c-.08-.067-.116-.173-.093-.275.023-.1.1-.18.2-.206l1.56-.39c.08-.02.146-.073.182-.145l.8-1.6c.047-.094.142-.153.247-.153.105 0 .2.06.247.153l.8 1.6c.036.072.102.125.18.145l1.562.39c.1.026.177.105.2.206.023.102-.013.208-.093.275l-1.111.926c-.075.069-.106.173-.081.272zm-1.561 11.723c-.084.056-.194.056-.278 0L9.99 17.458c-.092-.061-.132-.175-.1-.28.031-.106.128-.178.238-.178h3.744c.11 0 .207.072.239.178.031.105-.01.219-.101.28l-1.871 1.248z"/>
</svg>
